<svg xmlns="http://www.w3.org/2000/svg" xmlns:xlink="http://www.w3.org/1999/xlink" width="500" zoomAndPan="magnify" viewBox="0 0 375 374.999991" height="500" preserveAspectRatio="xMidYMid meet" version="1.2"><defs><clipPath id="645fc47aed"><path d="M 6.628906 11.890625 L 190.605469 11.890625 L 190.605469 197 L 6.628906 197 Z M 6.628906 11.890625 "/></clipPath><clipPath id="fc6843390b"><path d="M 32.878906 11.890625 L 164.355469 11.890625 C 178.851562 11.890625 190.605469 23.644531 190.605469 38.140625 L 190.605469 170.558594 C 190.605469 185.054688 178.851562 196.808594 164.355469 196.808594 L 32.878906 196.808594 C 18.382812 196.808594 6.628906 185.054688 6.628906 170.558594 L 6.628906 38.140625 C 6.628906 23.644531 18.382812 11.890625 32.878906 11.890625 Z M 32.878906 11.890625 "/></clipPath><clipPath id="2bc8f84e89"><path d="M 187.5 186.023438 L 371.980469 186.023438 L 371.980469 366.277344 L 187.5 366.277344 Z M 187.5 186.023438 "/></clipPath><clipPath id="d0500e4026"><path d="M 213.75 186.023438 L 345.386719 186.023438 C 359.882812 186.023438 371.636719 197.777344 371.636719 212.273438 L 371.636719 340.027344 C 371.636719 354.527344 359.882812 366.277344 345.386719 366.277344 L 213.75 366.277344 C 199.253906 366.277344 187.5 354.527344 187.5 340.027344 L 187.5 212.273438 C 187.5 197.777344 199.253906 186.023438 213.75 186.023438 Z M 213.75 186.023438 "/></clipPath></defs><g id="bb446d8523"><g clip-rule="nonzero" clip-path="url(#645fc47aed)"><g clip-rule="nonzero" clip-path="url(#fc6843390b)"><path style=" stroke:none;fill-rule:nonzero;fill:#38b5ff;fill-opacity:1;" d="M 6.628906 11.890625 L 190.605469 11.890625 L 190.605469 196.585938 L 6.628906 196.585938 Z M 6.628906 11.890625 "/></g></g><g clip-rule="nonzero" clip-path="url(#2bc8f84e89)"><g clip-rule="nonzero" clip-path="url(#d0500e4026)"><path style=" stroke:none;fill-rule:nonzero;fill:#ff3131;fill-opacity:1;" d="M 187.5 186.023438 L 371.980469 186.023438 L 371.980469 366.277344 L 187.5 366.277344 Z M 187.5 186.023438 "/></g></g></g></svg>